<!DOCTYPE svg [<!ENTITY nbsp "&#160;">]><svg version="1.1" id="mscgenjs__svg" class="mscgenjs__svg" xmlns="http://www.w3.org/2000/svg" xmlns:xlink="http://www.w3.org/1999/xlink" width="976" height="1155" viewBox="0 0 976 1155"><desc>

# Generated by mscgen_js - https://sverweij.github.io/mscgen_js
msc {
  arcgradient = 8;
  client,collection,kappacore,sparseindex,FeedA, viewkv;
  |||;
  collection abox collection[label="Collection.put\n(type AND id AND value)"];
  collection abox collection[label="Collection.view.kv.getLinks(record)"];
  collection -&gt; viewkv[label="getLinks(record)"];
  viewkv &gt;&gt; collection[label="[keyseq]"];
  collection rbox collection[label="record.links:= [keyseq]"];
  collection rbox collection[label="blocks = [encode(record)]"];
  collection rbox collection[label="feed = collection._findFeed"];
  collection abox collection[label="feed is writable"];
  collection -&gt; FeedA[label="feed.append(binary blocks)"];
  FeedA -&gt; sparseindex[label="emit append"];
  sparseindex rbox sparseindex[label="append keyseq to collection log"];
  sparseindex -&gt; kappacore[label="update()"];
  kappacore -&gt; sparseindex[label="pull(lasthead)"];
  kappacore &lt;- sparseindex[label="[keyseq]"];
  kappacore -&gt; collection[label="getBlock(keyseq)"];
  collection -&gt; FeedA[label="get(seq)"];
  FeedA -&gt; collection[label="binary block"];
  collection rbox collection[label="record = decode(buf)"];
  collection -&gt; kappacore[label="record"];
  kappacore -&gt; viewkv[label="map([records])"];
  viewkv rbox viewkv[label="update indexes with records"];
  viewkv -&gt; kappacore[label="success"];
}</desc><defs><style type="text/css">svg.mscgenjs__svg{font-family:Helvetica,sans-serif;font-size:12px;font-weight:normal;font-style:normal;text-decoration:none;background-color:white;stroke:black;stroke-width:2}.mscgenjs__svg path, .mscgenjs__svg rect{fill:none}.mscgenjs__svg .label-text-background{fill:white;stroke:white;stroke-width:0}.mscgenjs__svg .bglayer{fill:white;stroke:white;stroke-width:0}.mscgenjs__svg line{}.mscgenjs__svg .return, .mscgenjs__svg .comment{stroke-dasharray:5,3}.mscgenjs__svg .inline_expression_divider{stroke-dasharray:10,5}.mscgenjs__svg text{color:inherit;stroke:none;text-anchor:middle}.mscgenjs__svg text.anchor-start{text-anchor:start}.mscgenjs__svg .arrow-marker{overflow:visible}.mscgenjs__svg .arrow-style{stroke-width:1}.mscgenjs__svg .arcrow, .mscgenjs__svg .arcrowomit, .mscgenjs__svg .emphasised{stroke-linecap:butt}.mscgenjs__svg .arcrowomit{stroke-dasharray:2,2}.mscgenjs__svg .box, .mscgenjs__svg .entity{fill:white;stroke-linejoin:round}.mscgenjs__svg .inherit{stroke:inherit;color:inherit}.mscgenjs__svg .inherit-fill{fill:inherit}.mscgenjs__svg .watermark{font-size:48pt;font-weight:bold;opacity:0.14}</style><marker orient="auto" id="mscgenjs__svgcallback-black" class="arrow-marker" viewBox="0 0 10 10" refX="9" refY="3" markerUnits="strokeWidth" markerWidth="10" markerHeight="10"><path d="M 1,1 l 8,2 l-8,2" class="arrow-style" style="stroke-dasharray:100,1;stroke:black"></path></marker><marker orient="auto" id="mscgenjs__svgcallback-l-black" class="arrow-marker" viewBox="0 0 10 10" refX="9" refY="3" markerUnits="strokeWidth" markerWidth="10" markerHeight="10"><path d="M17,1 l-8,2 l 8,2" class="arrow-style" style="stroke-dasharray:100,1;stroke:black"></path></marker><marker orient="auto" id="mscgenjs__svgsignal-black" class="arrow-marker" viewBox="0 0 10 10" refX="9" refY="3" markerUnits="strokeWidth" markerWidth="10" markerHeight="10"><path d="M9,3 l-8, 2" class="arrow-style" style="stroke-dasharray:100,1;stroke:black"></path></marker><marker orient="auto" id="mscgenjs__svgsignal-u-black" class="arrow-marker" viewBox="0 0 10 10" refX="9" refY="3" markerUnits="strokeWidth" markerWidth="10" markerHeight="10"><path d="M9,3 l-8,-2" class="arrow-style" style="stroke-dasharray:100,1;stroke:black"></path></marker><marker orient="auto" id="mscgenjs__svgsignal-l-black" class="arrow-marker" viewBox="0 0 10 10" refX="9" refY="3" markerUnits="strokeWidth" markerWidth="10" markerHeight="10"><path d="M9,3 l 8, 2" class="arrow-style" style="stroke-dasharray:100,1;stroke:black"></path></marker><marker orient="auto" id="mscgenjs__svgsignal-lu-black" class="arrow-marker" viewBox="0 0 10 10" refX="9" refY="3" markerUnits="strokeWidth" markerWidth="10" markerHeight="10"><path d="M9,3 l 8,-2" class="arrow-style" style="stroke-dasharray:100,1;stroke:black"></path></marker></defs><g id="mscgenjs__svg_body" transform="translate(38,3) scale(1,1)"><g id="mscgenjs__svg_background"><rect width="976" height="1155" x="-38" y="-3" class="bglayer"></rect></g><g id="mscgenjs__svg_arcspans"></g><g id="mscgenjs__svg_lifelines"><line x1="50" y1="38" x2="50" y2="84" class="arcrow"></line><line x1="210" y1="38" x2="210" y2="84" class="arcrow"></line><line x1="370" y1="38" x2="370" y2="84" class="arcrow"></line><line x1="530" y1="38" x2="530" y2="84" class="arcrow"></line><line x1="690" y1="38" x2="690" y2="84" class="arcrow"></line><line x1="850" y1="38" x2="850" y2="84" class="arcrow"></line><line x1="50" y1="84" x2="50" y2="130" class="arcrow"></line><line x1="210" y1="84" x2="210" y2="130" class="arcrow"></line><line x1="370" y1="84" x2="370" y2="130" class="arcrow"></line><line x1="530" y1="84" x2="530" y2="130" class="arcrow"></line><line x1="690" y1="84" x2="690" y2="130" class="arcrow"></line><line x1="850" y1="84" x2="850" y2="130" class="arcrow"></line><line x1="50" y1="130" x2="50" y2="183" class="arcrow"></line><line x1="210" y1="130" x2="210" y2="183" class="arcrow"></line><line x1="370" y1="130" x2="370" y2="183" class="arcrow"></line><line x1="530" y1="130" x2="530" y2="183" class="arcrow"></line><line x1="690" y1="130" x2="690" y2="183" class="arcrow"></line><line x1="850" y1="130" x2="850" y2="183" class="arcrow"></line><line x1="50" y1="183" x2="50" y2="229" class="arcrow"></line><line x1="210" y1="183" x2="210" y2="229" class="arcrow"></line><line x1="370" y1="183" x2="370" y2="229" class="arcrow"></line><line x1="530" y1="183" x2="530" y2="229" class="arcrow"></line><line x1="690" y1="183" x2="690" y2="229" class="arcrow"></line><line x1="850" y1="183" x2="850" y2="229" class="arcrow"></line><line x1="50" y1="229" x2="50" y2="275" class="arcrow"></line><line x1="210" y1="229" x2="210" y2="275" class="arcrow"></line><line x1="370" y1="229" x2="370" y2="275" class="arcrow"></line><line x1="530" y1="229" x2="530" y2="275" class="arcrow"></line><line x1="690" y1="229" x2="690" y2="275" class="arcrow"></line><line x1="850" y1="229" x2="850" y2="275" class="arcrow"></line><line x1="50" y1="275" x2="50" y2="321" class="arcrow"></line><line x1="210" y1="275" x2="210" y2="321" class="arcrow"></line><line x1="370" y1="275" x2="370" y2="321" class="arcrow"></line><line x1="530" y1="275" x2="530" y2="321" class="arcrow"></line><line x1="690" y1="275" x2="690" y2="321" class="arcrow"></line><line x1="850" y1="275" x2="850" y2="321" class="arcrow"></line><line x1="50" y1="321" x2="50" y2="367" class="arcrow"></line><line x1="210" y1="321" x2="210" y2="367" class="arcrow"></line><line x1="370" y1="321" x2="370" y2="367" class="arcrow"></line><line x1="530" y1="321" x2="530" y2="367" class="arcrow"></line><line x1="690" y1="321" x2="690" y2="367" class="arcrow"></line><line x1="850" y1="321" x2="850" y2="367" class="arcrow"></line><line x1="50" y1="367" x2="50" y2="413" class="arcrow"></line><line x1="210" y1="367" x2="210" y2="413" class="arcrow"></line><line x1="370" y1="367" x2="370" y2="413" class="arcrow"></line><line x1="530" y1="367" x2="530" y2="413" class="arcrow"></line><line x1="690" y1="367" x2="690" y2="413" class="arcrow"></line><line x1="850" y1="367" x2="850" y2="413" class="arcrow"></line><line x1="50" y1="413" x2="50" y2="459" class="arcrow"></line><line x1="210" y1="413" x2="210" y2="459" class="arcrow"></line><line x1="370" y1="413" x2="370" y2="459" class="arcrow"></line><line x1="530" y1="413" x2="530" y2="459" class="arcrow"></line><line x1="690" y1="413" x2="690" y2="459" class="arcrow"></line><line x1="850" y1="413" x2="850" y2="459" class="arcrow"></line><line x1="50" y1="459" x2="50" y2="505" class="arcrow"></line><line x1="210" y1="459" x2="210" y2="505" class="arcrow"></line><line x1="370" y1="459" x2="370" y2="505" class="arcrow"></line><line x1="530" y1="459" x2="530" y2="505" class="arcrow"></line><line x1="690" y1="459" x2="690" y2="505" class="arcrow"></line><line x1="850" y1="459" x2="850" y2="505" class="arcrow"></line><line x1="50" y1="505" x2="50" y2="551" class="arcrow"></line><line x1="210" y1="505" x2="210" y2="551" class="arcrow"></line><line x1="370" y1="505" x2="370" y2="551" class="arcrow"></line><line x1="530" y1="505" x2="530" y2="551" class="arcrow"></line><line x1="690" y1="505" x2="690" y2="551" class="arcrow"></line><line x1="850" y1="505" x2="850" y2="551" class="arcrow"></line><line x1="50" y1="551" x2="50" y2="597" class="arcrow"></line><line x1="210" y1="551" x2="210" y2="597" class="arcrow"></line><line x1="370" y1="551" x2="370" y2="597" class="arcrow"></line><line x1="530" y1="551" x2="530" y2="597" class="arcrow"></line><line x1="690" y1="551" x2="690" y2="597" class="arcrow"></line><line x1="850" y1="551" x2="850" y2="597" class="arcrow"></line><line x1="50" y1="597" x2="50" y2="643" class="arcrow"></line><line x1="210" y1="597" x2="210" y2="643" class="arcrow"></line><line x1="370" y1="597" x2="370" y2="643" class="arcrow"></line><line x1="530" y1="597" x2="530" y2="643" class="arcrow"></line><line x1="690" y1="597" x2="690" y2="643" class="arcrow"></line><line x1="850" y1="597" x2="850" y2="643" class="arcrow"></line><line x1="50" y1="643" x2="50" y2="689" class="arcrow"></line><line x1="210" y1="643" x2="210" y2="689" class="arcrow"></line><line x1="370" y1="643" x2="370" y2="689" class="arcrow"></line><line x1="530" y1="643" x2="530" y2="689" class="arcrow"></line><line x1="690" y1="643" x2="690" y2="689" class="arcrow"></line><line x1="850" y1="643" x2="850" y2="689" class="arcrow"></line><line x1="50" y1="689" x2="50" y2="735" class="arcrow"></line><line x1="210" y1="689" x2="210" y2="735" class="arcrow"></line><line x1="370" y1="689" x2="370" y2="735" class="arcrow"></line><line x1="530" y1="689" x2="530" y2="735" class="arcrow"></line><line x1="690" y1="689" x2="690" y2="735" class="arcrow"></line><line x1="850" y1="689" x2="850" y2="735" class="arcrow"></line><line x1="50" y1="735" x2="50" y2="781" class="arcrow"></line><line x1="210" y1="735" x2="210" y2="781" class="arcrow"></line><line x1="370" y1="735" x2="370" y2="781" class="arcrow"></line><line x1="530" y1="735" x2="530" y2="781" class="arcrow"></line><line x1="690" y1="735" x2="690" y2="781" class="arcrow"></line><line x1="850" y1="735" x2="850" y2="781" class="arcrow"></line><line x1="50" y1="781" x2="50" y2="827" class="arcrow"></line><line x1="210" y1="781" x2="210" y2="827" class="arcrow"></line><line x1="370" y1="781" x2="370" y2="827" class="arcrow"></line><line x1="530" y1="781" x2="530" y2="827" class="arcrow"></line><line x1="690" y1="781" x2="690" y2="827" class="arcrow"></line><line x1="850" y1="781" x2="850" y2="827" class="arcrow"></line><line x1="50" y1="827" x2="50" y2="873" class="arcrow"></line><line x1="210" y1="827" x2="210" y2="873" class="arcrow"></line><line x1="370" y1="827" x2="370" y2="873" class="arcrow"></line><line x1="530" y1="827" x2="530" y2="873" class="arcrow"></line><line x1="690" y1="827" x2="690" y2="873" class="arcrow"></line><line x1="850" y1="827" x2="850" y2="873" class="arcrow"></line><line x1="50" y1="873" x2="50" y2="919" class="arcrow"></line><line x1="210" y1="873" x2="210" y2="919" class="arcrow"></line><line x1="370" y1="873" x2="370" y2="919" class="arcrow"></line><line x1="530" y1="873" x2="530" y2="919" class="arcrow"></line><line x1="690" y1="873" x2="690" y2="919" class="arcrow"></line><line x1="850" y1="873" x2="850" y2="919" class="arcrow"></line><line x1="50" y1="919" x2="50" y2="965" class="arcrow"></line><line x1="210" y1="919" x2="210" y2="965" class="arcrow"></line><line x1="370" y1="919" x2="370" y2="965" class="arcrow"></line><line x1="530" y1="919" x2="530" y2="965" class="arcrow"></line><line x1="690" y1="919" x2="690" y2="965" class="arcrow"></line><line x1="850" y1="919" x2="850" y2="965" class="arcrow"></line><line x1="50" y1="965" x2="50" y2="1011" class="arcrow"></line><line x1="210" y1="965" x2="210" y2="1011" class="arcrow"></line><line x1="370" y1="965" x2="370" y2="1011" class="arcrow"></line><line x1="530" y1="965" x2="530" y2="1011" class="arcrow"></line><line x1="690" y1="965" x2="690" y2="1011" class="arcrow"></line><line x1="850" y1="965" x2="850" y2="1011" class="arcrow"></line><line x1="50" y1="1011" x2="50" y2="1057" class="arcrow"></line><line x1="210" y1="1011" x2="210" y2="1057" class="arcrow"></line><line x1="370" y1="1011" x2="370" y2="1057" class="arcrow"></line><line x1="530" y1="1011" x2="530" y2="1057" class="arcrow"></line><line x1="690" y1="1011" x2="690" y2="1057" class="arcrow"></line><line x1="850" y1="1011" x2="850" y2="1057" class="arcrow"></line><line x1="50" y1="1057" x2="50" y2="1103" class="arcrow"></line><line x1="210" y1="1057" x2="210" y2="1103" class="arcrow"></line><line x1="370" y1="1057" x2="370" y2="1103" class="arcrow"></line><line x1="530" y1="1057" x2="530" y2="1103" class="arcrow"></line><line x1="690" y1="1057" x2="690" y2="1103" class="arcrow"></line><line x1="850" y1="1057" x2="850" y2="1103" class="arcrow"></line><line x1="50" y1="1103" x2="50" y2="1149" class="arcrow"></line><line x1="210" y1="1103" x2="210" y2="1149" class="arcrow"></line><line x1="370" y1="1103" x2="370" y2="1149" class="arcrow"></line><line x1="530" y1="1103" x2="530" y2="1149" class="arcrow"></line><line x1="690" y1="1103" x2="690" y2="1149" class="arcrow"></line><line x1="850" y1="1103" x2="850" y2="1149" class="arcrow"></line></g><g id="mscgenjs__svg_sequence"><g><g><rect width="100" height="38" class="entity"></rect><g><text x="50" y="22.75" class="entity-text "><tspan>client</tspan></text></g></g><g><rect width="100" height="38" x="160" class="entity"></rect><g><text x="210" y="22.75" class="entity-text "><tspan>collection</tspan></text></g></g><g><rect width="100" height="38" x="320" class="entity"></rect><g><text x="370" y="22.75" class="entity-text "><tspan>kappacore</tspan></text></g></g><g><rect width="100" height="38" x="480" class="entity"></rect><g><text x="530" y="22.75" class="entity-text "><tspan>sparseindex</tspan></text></g></g><g><rect width="100" height="38" x="640" class="entity"></rect><g><text x="690" y="22.75" class="entity-text "><tspan>FeedA</tspan></text></g></g><g><rect width="100" height="38" x="800" class="entity"></rect><g><text x="850" y="22.75" class="entity-text "><tspan>viewkv</tspan></text></g></g></g><g></g><g><line x1="210" y1="252" x2="850" y2="260" class="arc directional signal" style="stroke:black" marker-end="url(#mscgenjs__svgsignal-black)"></line><g><rect width="86.54" height="13" x="486.73" y="242.25" class="label-text-background"></rect><text x="530" y="251.25" class="directional-text signal-text "><tspan>getLinks(record)</tspan></text></g></g><g><line x1="850" y1="298" x2="210" y2="306" class="arc directional return" style="stroke:black" marker-end="url(#mscgenjs__svgcallback-black)"></line><g><rect width="44.66" height="13" x="507.67" y="288.25" class="label-text-background"></rect><text x="530" y="297.25" class="directional-text return-text "><tspan>[keyseq]</tspan></text></g></g><g><line x1="210" y1="528" x2="690" y2="536" class="arc directional signal" style="stroke:black" marker-end="url(#mscgenjs__svgsignal-black)"></line><g><rect width="144.98" height="13" x="377.51" y="518.25" class="label-text-background"></rect><text x="450" y="527.25" class="directional-text signal-text "><tspan>feed.append(binary blocks)</tspan></text></g></g><g><line x1="690" y1="574" x2="530" y2="582" class="arc directional signal" style="stroke:black" marker-end="url(#mscgenjs__svgsignal-u-black)"></line><g><rect width="66.1" height="13" x="576.95" y="564.25" class="label-text-background"></rect><text x="610" y="573.25" class="directional-text signal-text "><tspan>emit append</tspan></text></g></g><g><line x1="530" y1="666" x2="370" y2="674" class="arc directional signal" style="stroke:black" marker-end="url(#mscgenjs__svgsignal-u-black)"></line><g><rect width="44.36" height="13" x="427.82" y="656.25" class="label-text-background"></rect><text x="450" y="665.25" class="directional-text signal-text "><tspan>update()</tspan></text></g></g><g><line x1="370" y1="712" x2="530" y2="720" class="arc directional signal" style="stroke:black" marker-end="url(#mscgenjs__svgsignal-black)"></line><g><rect width="72" height="13" x="414" y="702.25" class="label-text-background"></rect><text x="450" y="711.25" class="directional-text signal-text "><tspan>pull(lasthead)</tspan></text></g></g><g><line x1="530" y1="758" x2="370" y2="766" class="arc directional signal" style="stroke:black" marker-end="url(#mscgenjs__svgsignal-u-black)"></line><g><rect width="44.66" height="13" x="427.67" y="748.25" class="label-text-background"></rect><text x="450" y="757.25" class="directional-text signal-text "><tspan>[keyseq]</tspan></text></g></g><g><line x1="370" y1="804" x2="210" y2="812" class="arc directional signal" style="stroke:black" marker-end="url(#mscgenjs__svgsignal-u-black)"></line><g><rect width="91.5" height="13" x="244.25" y="794.25" class="label-text-background"></rect><text x="290" y="803.25" class="directional-text signal-text "><tspan>getBlock(keyseq)</tspan></text></g></g><g><line x1="210" y1="850" x2="690" y2="858" class="arc directional signal" style="stroke:black" marker-end="url(#mscgenjs__svgsignal-black)"></line><g><rect width="43.98" height="13" x="428.01" y="840.25" class="label-text-background"></rect><text x="450" y="849.25" class="directional-text signal-text "><tspan>get(seq)</tspan></text></g></g><g><line x1="690" y1="896" x2="210" y2="904" class="arc directional signal" style="stroke:black" marker-end="url(#mscgenjs__svgsignal-u-black)"></line><g><rect width="64.42" height="13" x="417.79" y="886.25" class="label-text-background"></rect><text x="450" y="895.25" class="directional-text signal-text "><tspan>binary block</tspan></text></g></g><g><line x1="210" y1="988" x2="370" y2="996" class="arc directional signal" style="stroke:black" marker-end="url(#mscgenjs__svgsignal-black)"></line><g><rect width="34" height="13" x="273" y="978.25" class="label-text-background"></rect><text x="290" y="987.25" class="directional-text signal-text "><tspan>record</tspan></text></g></g><g><line x1="370" y1="1034" x2="850" y2="1042" class="arc directional signal" style="stroke:black" marker-end="url(#mscgenjs__svgsignal-black)"></line><g><rect width="78.04" height="13" x="570.98" y="1024.25" class="label-text-background"></rect><text x="610" y="1033.25" class="directional-text signal-text "><tspan>map([records])</tspan></text></g></g><g><line x1="850" y1="1126" x2="370" y2="1134" class="arc directional signal" style="stroke:black" marker-end="url(#mscgenjs__svgsignal-u-black)"></line><g><rect width="43.54" height="13" x="588.23" y="1116.25" class="label-text-background"></rect><text x="610" y="1125.25" class="directional-text signal-text "><tspan>success</tspan></text></g></g></g><g id="mscgenjs__svg_notes"><g><path d="M134,156.5 l3,-24.5 l146,0 l3,24.5 l-3,24.5 l-146,0 z" class="box abox"></path><g><text x="210" y="144.25" class="box-text abox-text "><tspan>Collection.put</tspan></text><text x="210" y="160.25" class="box-text abox-text "><tspan>(type AND id AND</tspan></text><text x="210" y="176.25" class="box-text abox-text "><tspan>value)</tspan></text></g></g><g><path d="M134,206 l3,-21 l146,0 l3,21 l-3,21 l-146,0 z" class="box abox"></path><g><text x="210" y="201.75" class="box-text abox-text "><tspan>Collection.view.kv.</tspan></text><text x="210" y="217.75" class="box-text abox-text "><tspan>getLinks(record)</tspan></text></g></g><g><rect width="152" height="42" x="134" y="323" rx="6" ry="6" class="box rbox"></rect><g><text x="210" y="339.75" class="box-text rbox-text "><tspan>record.links:=</tspan></text><text x="210" y="355.75" class="box-text rbox-text "><tspan>[keyseq]</tspan></text></g></g><g><rect width="152" height="42" x="134" y="369" rx="6" ry="6" class="box rbox"></rect><g><text x="210" y="385.75" class="box-text rbox-text "><tspan>blocks =</tspan></text><text x="210" y="401.75" class="box-text rbox-text "><tspan>[encode(record)]</tspan></text></g></g><g><rect width="152" height="42" x="134" y="415" rx="6" ry="6" class="box rbox"></rect><g><text x="210" y="431.75" class="box-text rbox-text "><tspan>feed =</tspan></text><text x="210" y="447.75" class="box-text rbox-text "><tspan>collection._findFeed</tspan></text></g></g><g><path d="M134,482 l3,-21 l146,0 l3,21 l-3,21 l-146,0 z" class="box abox"></path><g><text x="210" y="485.75" class="box-text abox-text "><tspan>feed is writable</tspan></text></g></g><g><rect width="152" height="42" x="454" y="599" rx="6" ry="6" class="box rbox"></rect><g><text x="530" y="615.75" class="box-text rbox-text "><tspan>append keyseq to</tspan></text><text x="530" y="631.75" class="box-text rbox-text "><tspan>collection log</tspan></text></g></g><g><rect width="152" height="42" x="134" y="921" rx="6" ry="6" class="box rbox"></rect><g><text x="210" y="937.75" class="box-text rbox-text "><tspan>record =</tspan></text><text x="210" y="953.75" class="box-text rbox-text "><tspan>decode(buf)</tspan></text></g></g><g><rect width="152" height="42" x="774" y="1059" rx="6" ry="6" class="box rbox"></rect><g><text x="850" y="1075.75" class="box-text rbox-text "><tspan>update indexes</tspan></text><text x="850" y="1091.75" class="box-text rbox-text "><tspan>with records</tspan></text></g></g></g><g id="mscgenjs__svg_watermark"></g></g></svg>